<svg xmlns="http://www.w3.org/2000/svg" viewBox="0 0 760 210" role="img" aria-labelledby="title desc">
<title id="title">Villages Golf Cart Trader</title>
<desc id="desc">Golf cart marketplace logo with a white and green golf cart icon.</desc>
<defs>
  <linearGradient id="g" x1="0" x2="1" y1="0" y2="1">
    <stop offset="0" stop-color="#ffffff"/>
    <stop offset="1" stop-color="#dceee8"/>
  </linearGradient>
  <linearGradient id="green" x1="0" x2="1" y1="0" y2="1">
    <stop offset="0" stop-color="#2fb06f"/>
    <stop offset="1" stop-color="#0b5146"/>
  </linearGradient>
  <filter id="shadow" x="-20%" y="-20%" width="140%" height="140%">
    <feDropShadow dx="0" dy="10" stdDeviation="8" flood-color="#062f29" flood-opacity=".35"/>
  </filter>
</defs>
<g filter="url(#shadow)">
  <path d="M70 160 C105 106 157 74 235 64 C296 56 360 70 414 103" fill="none" stroke="#7cc242" stroke-width="12" stroke-linecap="round"/>
  <path d="M78 169 C151 151 284 151 413 169" fill="none" stroke="#ffffff" stroke-width="7" stroke-linecap="round"/>
  <g transform="translate(103 50)">
    <path d="M65 86h203c18 0 32 14 32 32v5H37v-7c0-17 12-30 28-30z" fill="url(#g)"/>
    <path d="M92 28h137c18 0 34 11 41 28l14 35H74l18-63z" fill="url(#g)"/>
    <path d="M112 42h51v47h-67l16-47zm69 0h42c13 0 24 8 29 20l11 27h-82V42z" fill="#0b5146" opacity=".76"/>
    <path d="M90 27h191" stroke="#ffffff" stroke-width="10" stroke-linecap="round"/>
    <path d="M71 86h232" stroke="#0b5146" stroke-width="7" stroke-linecap="round" opacity=".35"/>
    <path d="M145 95h92" stroke="#2fb06f" stroke-width="10" stroke-linecap="round"/>
    <path d="M242 45v89" stroke="#ffffff" stroke-width="7" stroke-linecap="round"/>
    <circle cx="91" cy="126" r="29" fill="#0b5146"/><circle cx="91" cy="126" r="17" fill="#ffffff"/><circle cx="91" cy="126" r="8" fill="#0b5146"/>
    <circle cx="252" cy="126" r="29" fill="#0b5146"/><circle cx="252" cy="126" r="17" fill="#ffffff"/><circle cx="252" cy="126" r="8" fill="#0b5146"/>
    <path d="M301 39v84" stroke="#ffffff" stroke-width="6" stroke-linecap="round"/>
    <path d="M304 43c24-17 42-6 55-14v37c-15 8-34-3-55 14z" fill="#7cc242"/>
  </g>
</g>
<g transform="translate(413 56)">
  <text x="0" y="48" font-family="Arial Black, Montserrat, Arial, sans-serif" font-size="52" font-weight="900" fill="#ffffff" letter-spacing="-1.5">VILLAGES</text>
  <text x="3" y="100" font-family="Arial Black, Montserrat, Arial, sans-serif" font-size="34" font-weight="900" fill="#8ed15a" letter-spacing="2.5">GOLF CART TRADER</text>
  <path d="M4 119h286" stroke="#ffffff" stroke-width="3" opacity=".75"/>
  <text x="8" y="151" font-family="Arial, sans-serif" font-size="20" font-weight="800" fill="#ffffff" letter-spacing="4">BUY • SELL • TRADE LOCALLY</text>
</g>
</svg>
